<?xml version="1.0" encoding="utf-8"?>
<!-- Generator: Adobe Illustrator 19.0.0, SVG Export Plug-In . SVG Version: 6.00 Build 0)  -->
<svg version="1.1" id="Layer_1" xmlns="http://www.w3.org/2000/svg" xmlns:xlink="http://www.w3.org/1999/xlink" x="0px" y="0px"
	 viewBox="0 0 270 19.3" style="enable-background:new 0 0 270 19.3;" xml:space="preserve">
<style type="text/css">
	.st0{fill:none;stroke:#231F20;stroke-miterlimit:10;}
</style>
<g id="XMLID_1_">
	<path id="XMLID_11_" class="st0" d="M0,0.7c13.5,0,13.5,18,27,18c13.5,0,13.5-18,27-18c13.5,0,13.5,18,27,18c13.5,0,13.5-18,27-18
		c13.5,0,13.5,18,27,18c13.5,0,13.5-18,27-18c13.5,0,13.5,18,27,18c13.5,0,13.5-18,27-18c13.5,0,13.5,18,27,18c13.5,0,13.5-18,27-18
		"/>
</g>
</svg>
